<mxfile host="app.diagrams.net" modified="2024-02-01T07:38:40.028Z" agent="Mozilla/5.0 (Windows NT 10.0; Win64; x64) AppleWebKit/537.36 (KHTML, like Gecko) Chrome/121.0.0.0 Safari/537.36" etag="cf0rtX7g-XGwnUD70QgL" version="22.1.21" type="github">
  <diagram name="第 1 页" id="FzOcBeNj3MInu65cjAIJ">
    <mxGraphModel dx="1050" dy="1699" grid="1" gridSize="10" guides="1" tooltips="1" connect="1" arrows="1" fold="1" page="1" pageScale="1" pageWidth="827" pageHeight="1169" math="0" shadow="0">
      <root>
        <mxCell id="0" />
        <mxCell id="1" parent="0" />
        <mxCell id="a7IkXdeOvBuVXZyOrHQX-26" value="" style="edgeStyle=entityRelationEdgeStyle;rounded=0;orthogonalLoop=1;jettySize=auto;html=1;startArrow=none;endArrow=none;segment=10;curved=1;sourcePerimeterSpacing=0;targetPerimeterSpacing=0;entryX=0;entryY=0.5;entryDx=0;entryDy=0;" edge="1" parent="1" source="a7IkXdeOvBuVXZyOrHQX-24" target="a7IkXdeOvBuVXZyOrHQX-29">
          <mxGeometry relative="1" as="geometry">
            <mxPoint x="240" y="320" as="targetPoint" />
          </mxGeometry>
        </mxCell>
        <mxCell id="a7IkXdeOvBuVXZyOrHQX-28" value="" style="edgeStyle=entityRelationEdgeStyle;rounded=0;orthogonalLoop=1;jettySize=auto;html=1;startArrow=none;endArrow=none;segment=10;curved=1;sourcePerimeterSpacing=0;targetPerimeterSpacing=0;entryX=0;entryY=0.5;entryDx=0;entryDy=0;" edge="1" parent="1" source="a7IkXdeOvBuVXZyOrHQX-24" target="a7IkXdeOvBuVXZyOrHQX-43">
          <mxGeometry relative="1" as="geometry">
            <mxPoint x="170" y="730" as="targetPoint" />
          </mxGeometry>
        </mxCell>
        <mxCell id="a7IkXdeOvBuVXZyOrHQX-61" value="" style="edgeStyle=entityRelationEdgeStyle;rounded=0;orthogonalLoop=1;jettySize=auto;html=1;startArrow=none;endArrow=none;segment=10;curved=1;sourcePerimeterSpacing=0;targetPerimeterSpacing=0;" edge="1" parent="1" source="a7IkXdeOvBuVXZyOrHQX-24" target="a7IkXdeOvBuVXZyOrHQX-60">
          <mxGeometry relative="1" as="geometry" />
        </mxCell>
        <mxCell id="a7IkXdeOvBuVXZyOrHQX-80" value="" style="edgeStyle=entityRelationEdgeStyle;rounded=0;orthogonalLoop=1;jettySize=auto;html=1;startArrow=none;endArrow=none;segment=10;curved=1;sourcePerimeterSpacing=0;targetPerimeterSpacing=0;" edge="1" parent="1" source="a7IkXdeOvBuVXZyOrHQX-24" target="a7IkXdeOvBuVXZyOrHQX-79">
          <mxGeometry relative="1" as="geometry" />
        </mxCell>
        <mxCell id="a7IkXdeOvBuVXZyOrHQX-97" value="" style="edgeStyle=entityRelationEdgeStyle;rounded=0;orthogonalLoop=1;jettySize=auto;html=1;startArrow=none;endArrow=none;segment=10;curved=1;sourcePerimeterSpacing=0;targetPerimeterSpacing=0;" edge="1" parent="1" source="a7IkXdeOvBuVXZyOrHQX-24" target="a7IkXdeOvBuVXZyOrHQX-96">
          <mxGeometry relative="1" as="geometry" />
        </mxCell>
        <mxCell id="a7IkXdeOvBuVXZyOrHQX-134" value="" style="edgeStyle=entityRelationEdgeStyle;rounded=0;orthogonalLoop=1;jettySize=auto;html=1;startArrow=none;endArrow=none;segment=10;curved=1;sourcePerimeterSpacing=0;targetPerimeterSpacing=0;" edge="1" parent="1" source="a7IkXdeOvBuVXZyOrHQX-24" target="a7IkXdeOvBuVXZyOrHQX-133">
          <mxGeometry relative="1" as="geometry" />
        </mxCell>
        <mxCell id="a7IkXdeOvBuVXZyOrHQX-24" value="屏幕分享" style="ellipse;whiteSpace=wrap;html=1;align=center;newEdgeStyle={&quot;edgeStyle&quot;:&quot;entityRelationEdgeStyle&quot;,&quot;startArrow&quot;:&quot;none&quot;,&quot;endArrow&quot;:&quot;none&quot;,&quot;segment&quot;:10,&quot;curved&quot;:1,&quot;sourcePerimeterSpacing&quot;:0,&quot;targetPerimeterSpacing&quot;:0};treeFolding=1;treeMoving=1;" vertex="1" parent="1">
          <mxGeometry x="10" y="500" width="100" height="40" as="geometry" />
        </mxCell>
        <mxCell id="a7IkXdeOvBuVXZyOrHQX-32" value="" style="edgeStyle=entityRelationEdgeStyle;rounded=0;orthogonalLoop=1;jettySize=auto;html=1;startArrow=none;endArrow=none;segment=10;curved=1;sourcePerimeterSpacing=0;targetPerimeterSpacing=0;" edge="1" parent="1" source="a7IkXdeOvBuVXZyOrHQX-29" target="a7IkXdeOvBuVXZyOrHQX-31">
          <mxGeometry relative="1" as="geometry" />
        </mxCell>
        <mxCell id="a7IkXdeOvBuVXZyOrHQX-34" value="" style="edgeStyle=entityRelationEdgeStyle;rounded=0;orthogonalLoop=1;jettySize=auto;html=1;startArrow=none;endArrow=none;segment=10;curved=1;sourcePerimeterSpacing=0;targetPerimeterSpacing=0;" edge="1" parent="1" source="a7IkXdeOvBuVXZyOrHQX-29" target="a7IkXdeOvBuVXZyOrHQX-33">
          <mxGeometry relative="1" as="geometry" />
        </mxCell>
        <mxCell id="a7IkXdeOvBuVXZyOrHQX-36" value="" style="edgeStyle=entityRelationEdgeStyle;rounded=0;orthogonalLoop=1;jettySize=auto;html=1;startArrow=none;endArrow=none;segment=10;curved=1;sourcePerimeterSpacing=0;targetPerimeterSpacing=0;" edge="1" parent="1" source="a7IkXdeOvBuVXZyOrHQX-29" target="a7IkXdeOvBuVXZyOrHQX-35">
          <mxGeometry relative="1" as="geometry" />
        </mxCell>
        <mxCell id="a7IkXdeOvBuVXZyOrHQX-37" value="" style="edgeStyle=entityRelationEdgeStyle;rounded=0;orthogonalLoop=1;jettySize=auto;html=1;startArrow=none;endArrow=none;segment=10;curved=1;sourcePerimeterSpacing=0;targetPerimeterSpacing=0;" edge="1" parent="1" source="a7IkXdeOvBuVXZyOrHQX-29" target="a7IkXdeOvBuVXZyOrHQX-35">
          <mxGeometry relative="1" as="geometry" />
        </mxCell>
        <mxCell id="a7IkXdeOvBuVXZyOrHQX-38" value="" style="edgeStyle=entityRelationEdgeStyle;rounded=0;orthogonalLoop=1;jettySize=auto;html=1;startArrow=none;endArrow=none;segment=10;curved=1;sourcePerimeterSpacing=0;targetPerimeterSpacing=0;" edge="1" parent="1" source="a7IkXdeOvBuVXZyOrHQX-29" target="a7IkXdeOvBuVXZyOrHQX-35">
          <mxGeometry relative="1" as="geometry" />
        </mxCell>
        <mxCell id="a7IkXdeOvBuVXZyOrHQX-40" value="" style="edgeStyle=entityRelationEdgeStyle;rounded=0;orthogonalLoop=1;jettySize=auto;html=1;startArrow=none;endArrow=none;segment=10;curved=1;sourcePerimeterSpacing=0;targetPerimeterSpacing=0;" edge="1" parent="1" source="a7IkXdeOvBuVXZyOrHQX-29" target="a7IkXdeOvBuVXZyOrHQX-39">
          <mxGeometry relative="1" as="geometry" />
        </mxCell>
        <mxCell id="a7IkXdeOvBuVXZyOrHQX-42" value="" style="edgeStyle=entityRelationEdgeStyle;rounded=0;orthogonalLoop=1;jettySize=auto;html=1;startArrow=none;endArrow=none;segment=10;curved=1;sourcePerimeterSpacing=0;targetPerimeterSpacing=0;" edge="1" parent="1" source="a7IkXdeOvBuVXZyOrHQX-29" target="a7IkXdeOvBuVXZyOrHQX-41">
          <mxGeometry relative="1" as="geometry" />
        </mxCell>
        <mxCell id="a7IkXdeOvBuVXZyOrHQX-88" value="" style="edgeStyle=entityRelationEdgeStyle;rounded=0;orthogonalLoop=1;jettySize=auto;html=1;startArrow=none;endArrow=none;segment=10;curved=1;sourcePerimeterSpacing=0;targetPerimeterSpacing=0;" edge="1" parent="1" source="a7IkXdeOvBuVXZyOrHQX-29" target="a7IkXdeOvBuVXZyOrHQX-87">
          <mxGeometry relative="1" as="geometry" />
        </mxCell>
        <mxCell id="a7IkXdeOvBuVXZyOrHQX-29" value="流属性" style="ellipse;whiteSpace=wrap;html=1;align=center;newEdgeStyle={&quot;edgeStyle&quot;:&quot;entityRelationEdgeStyle&quot;,&quot;startArrow&quot;:&quot;none&quot;,&quot;endArrow&quot;:&quot;none&quot;,&quot;segment&quot;:10,&quot;curved&quot;:1,&quot;sourcePerimeterSpacing&quot;:0,&quot;targetPerimeterSpacing&quot;:0};treeFolding=1;treeMoving=1;" vertex="1" parent="1">
          <mxGeometry x="292" y="16" width="100" height="40" as="geometry" />
        </mxCell>
        <mxCell id="a7IkXdeOvBuVXZyOrHQX-31" value="程序窗口" style="ellipse;whiteSpace=wrap;html=1;align=center;newEdgeStyle={&quot;edgeStyle&quot;:&quot;entityRelationEdgeStyle&quot;,&quot;startArrow&quot;:&quot;none&quot;,&quot;endArrow&quot;:&quot;none&quot;,&quot;segment&quot;:10,&quot;curved&quot;:1,&quot;sourcePerimeterSpacing&quot;:0,&quot;targetPerimeterSpacing&quot;:0};treeFolding=1;treeMoving=1;" vertex="1" parent="1">
          <mxGeometry x="452" y="-124" width="100" height="40" as="geometry" />
        </mxCell>
        <mxCell id="a7IkXdeOvBuVXZyOrHQX-33" value="屏幕" style="ellipse;whiteSpace=wrap;html=1;align=center;newEdgeStyle={&quot;edgeStyle&quot;:&quot;entityRelationEdgeStyle&quot;,&quot;startArrow&quot;:&quot;none&quot;,&quot;endArrow&quot;:&quot;none&quot;,&quot;segment&quot;:10,&quot;curved&quot;:1,&quot;sourcePerimeterSpacing&quot;:0,&quot;targetPerimeterSpacing&quot;:0};treeFolding=1;treeMoving=1;" vertex="1" parent="1">
          <mxGeometry x="452" y="-54" width="100" height="40" as="geometry" />
        </mxCell>
        <mxCell id="a7IkXdeOvBuVXZyOrHQX-35" value="分辨率" style="ellipse;whiteSpace=wrap;html=1;align=center;newEdgeStyle={&quot;edgeStyle&quot;:&quot;entityRelationEdgeStyle&quot;,&quot;startArrow&quot;:&quot;none&quot;,&quot;endArrow&quot;:&quot;none&quot;,&quot;segment&quot;:10,&quot;curved&quot;:1,&quot;sourcePerimeterSpacing&quot;:0,&quot;targetPerimeterSpacing&quot;:0};treeFolding=1;treeMoving=1;" vertex="1" parent="1">
          <mxGeometry x="452" y="16" width="100" height="40" as="geometry" />
        </mxCell>
        <mxCell id="a7IkXdeOvBuVXZyOrHQX-39" value="帧率" style="ellipse;whiteSpace=wrap;html=1;align=center;newEdgeStyle={&quot;edgeStyle&quot;:&quot;entityRelationEdgeStyle&quot;,&quot;startArrow&quot;:&quot;none&quot;,&quot;endArrow&quot;:&quot;none&quot;,&quot;segment&quot;:10,&quot;curved&quot;:1,&quot;sourcePerimeterSpacing&quot;:0,&quot;targetPerimeterSpacing&quot;:0};treeFolding=1;treeMoving=1;" vertex="1" parent="1">
          <mxGeometry x="452" y="96" width="100" height="40" as="geometry" />
        </mxCell>
        <mxCell id="a7IkXdeOvBuVXZyOrHQX-41" value="声音" style="ellipse;whiteSpace=wrap;html=1;align=center;newEdgeStyle={&quot;edgeStyle&quot;:&quot;entityRelationEdgeStyle&quot;,&quot;startArrow&quot;:&quot;none&quot;,&quot;endArrow&quot;:&quot;none&quot;,&quot;segment&quot;:10,&quot;curved&quot;:1,&quot;sourcePerimeterSpacing&quot;:0,&quot;targetPerimeterSpacing&quot;:0};treeFolding=1;treeMoving=1;" vertex="1" parent="1">
          <mxGeometry x="452" y="176" width="100" height="40" as="geometry" />
        </mxCell>
        <mxCell id="a7IkXdeOvBuVXZyOrHQX-46" value="" style="edgeStyle=entityRelationEdgeStyle;rounded=0;orthogonalLoop=1;jettySize=auto;html=1;startArrow=none;endArrow=none;segment=10;curved=1;sourcePerimeterSpacing=0;targetPerimeterSpacing=0;" edge="1" parent="1" source="a7IkXdeOvBuVXZyOrHQX-43" target="a7IkXdeOvBuVXZyOrHQX-45">
          <mxGeometry relative="1" as="geometry" />
        </mxCell>
        <mxCell id="a7IkXdeOvBuVXZyOrHQX-49" value="" style="edgeStyle=entityRelationEdgeStyle;rounded=0;orthogonalLoop=1;jettySize=auto;html=1;startArrow=none;endArrow=none;segment=10;curved=1;sourcePerimeterSpacing=0;targetPerimeterSpacing=0;" edge="1" parent="1" source="a7IkXdeOvBuVXZyOrHQX-43" target="a7IkXdeOvBuVXZyOrHQX-48">
          <mxGeometry relative="1" as="geometry" />
        </mxCell>
        <mxCell id="a7IkXdeOvBuVXZyOrHQX-50" value="" style="edgeStyle=entityRelationEdgeStyle;rounded=0;orthogonalLoop=1;jettySize=auto;html=1;startArrow=none;endArrow=none;segment=10;curved=1;sourcePerimeterSpacing=0;targetPerimeterSpacing=0;" edge="1" parent="1" source="a7IkXdeOvBuVXZyOrHQX-43" target="a7IkXdeOvBuVXZyOrHQX-48">
          <mxGeometry relative="1" as="geometry" />
        </mxCell>
        <mxCell id="a7IkXdeOvBuVXZyOrHQX-52" value="" style="edgeStyle=entityRelationEdgeStyle;rounded=0;orthogonalLoop=1;jettySize=auto;html=1;startArrow=none;endArrow=none;segment=10;curved=1;sourcePerimeterSpacing=0;targetPerimeterSpacing=0;" edge="1" parent="1" source="a7IkXdeOvBuVXZyOrHQX-43" target="a7IkXdeOvBuVXZyOrHQX-51">
          <mxGeometry relative="1" as="geometry" />
        </mxCell>
        <mxCell id="a7IkXdeOvBuVXZyOrHQX-54" value="" style="edgeStyle=entityRelationEdgeStyle;rounded=0;orthogonalLoop=1;jettySize=auto;html=1;startArrow=none;endArrow=none;segment=10;curved=1;sourcePerimeterSpacing=0;targetPerimeterSpacing=0;" edge="1" parent="1" source="a7IkXdeOvBuVXZyOrHQX-43" target="a7IkXdeOvBuVXZyOrHQX-53">
          <mxGeometry relative="1" as="geometry" />
        </mxCell>
        <mxCell id="a7IkXdeOvBuVXZyOrHQX-56" value="" style="edgeStyle=entityRelationEdgeStyle;rounded=0;orthogonalLoop=1;jettySize=auto;html=1;startArrow=none;endArrow=none;segment=10;curved=1;sourcePerimeterSpacing=0;targetPerimeterSpacing=0;entryX=0;entryY=0.5;entryDx=0;entryDy=0;exitX=1;exitY=0.5;exitDx=0;exitDy=0;" edge="1" parent="1" source="a7IkXdeOvBuVXZyOrHQX-43" target="a7IkXdeOvBuVXZyOrHQX-55">
          <mxGeometry relative="1" as="geometry">
            <mxPoint x="110" y="520" as="sourcePoint" />
            <mxPoint x="220" y="670" as="targetPoint" />
          </mxGeometry>
        </mxCell>
        <mxCell id="a7IkXdeOvBuVXZyOrHQX-43" value="预览模式" style="ellipse;whiteSpace=wrap;html=1;align=center;newEdgeStyle={&quot;edgeStyle&quot;:&quot;entityRelationEdgeStyle&quot;,&quot;startArrow&quot;:&quot;none&quot;,&quot;endArrow&quot;:&quot;none&quot;,&quot;segment&quot;:10,&quot;curved&quot;:1,&quot;sourcePerimeterSpacing&quot;:0,&quot;targetPerimeterSpacing&quot;:0};treeFolding=1;treeMoving=1;" vertex="1" parent="1">
          <mxGeometry x="240" y="505" width="100" height="40" as="geometry" />
        </mxCell>
        <mxCell id="a7IkXdeOvBuVXZyOrHQX-45" value="卡片模式" style="ellipse;whiteSpace=wrap;html=1;align=center;newEdgeStyle={&quot;edgeStyle&quot;:&quot;entityRelationEdgeStyle&quot;,&quot;startArrow&quot;:&quot;none&quot;,&quot;endArrow&quot;:&quot;none&quot;,&quot;segment&quot;:10,&quot;curved&quot;:1,&quot;sourcePerimeterSpacing&quot;:0,&quot;targetPerimeterSpacing&quot;:0};treeFolding=1;treeMoving=1;" vertex="1" parent="1">
          <mxGeometry x="490" y="410" width="100" height="40" as="geometry" />
        </mxCell>
        <mxCell id="a7IkXdeOvBuVXZyOrHQX-90" value="" style="edgeStyle=entityRelationEdgeStyle;rounded=0;orthogonalLoop=1;jettySize=auto;html=1;startArrow=none;endArrow=none;segment=10;curved=1;sourcePerimeterSpacing=0;targetPerimeterSpacing=0;entryX=0;entryY=0.5;entryDx=0;entryDy=0;" edge="1" parent="1" source="a7IkXdeOvBuVXZyOrHQX-48" target="a7IkXdeOvBuVXZyOrHQX-91">
          <mxGeometry relative="1" as="geometry">
            <mxPoint x="650" y="450" as="targetPoint" />
          </mxGeometry>
        </mxCell>
        <mxCell id="a7IkXdeOvBuVXZyOrHQX-93" style="edgeStyle=entityRelationEdgeStyle;rounded=0;orthogonalLoop=1;jettySize=auto;html=1;startArrow=none;endArrow=none;segment=10;curved=1;sourcePerimeterSpacing=0;targetPerimeterSpacing=0;exitX=1;exitY=0.5;exitDx=0;exitDy=0;entryX=0;entryY=0.5;entryDx=0;entryDy=0;" edge="1" parent="1" source="a7IkXdeOvBuVXZyOrHQX-48" target="a7IkXdeOvBuVXZyOrHQX-92">
          <mxGeometry relative="1" as="geometry" />
        </mxCell>
        <mxCell id="a7IkXdeOvBuVXZyOrHQX-48" value="聚焦模式" style="ellipse;whiteSpace=wrap;html=1;align=center;newEdgeStyle={&quot;edgeStyle&quot;:&quot;entityRelationEdgeStyle&quot;,&quot;startArrow&quot;:&quot;none&quot;,&quot;endArrow&quot;:&quot;none&quot;,&quot;segment&quot;:10,&quot;curved&quot;:1,&quot;sourcePerimeterSpacing&quot;:0,&quot;targetPerimeterSpacing&quot;:0};treeFolding=1;treeMoving=1;" vertex="1" parent="1">
          <mxGeometry x="490" y="480" width="100" height="40" as="geometry" />
        </mxCell>
        <mxCell id="a7IkXdeOvBuVXZyOrHQX-51" value="全屏模式" style="ellipse;whiteSpace=wrap;html=1;align=center;newEdgeStyle={&quot;edgeStyle&quot;:&quot;entityRelationEdgeStyle&quot;,&quot;startArrow&quot;:&quot;none&quot;,&quot;endArrow&quot;:&quot;none&quot;,&quot;segment&quot;:10,&quot;curved&quot;:1,&quot;sourcePerimeterSpacing&quot;:0,&quot;targetPerimeterSpacing&quot;:0};treeFolding=1;treeMoving=1;" vertex="1" parent="1">
          <mxGeometry x="490" y="545" width="100" height="40" as="geometry" />
        </mxCell>
        <mxCell id="a7IkXdeOvBuVXZyOrHQX-53" value="小窗模式" style="ellipse;whiteSpace=wrap;html=1;align=center;newEdgeStyle={&quot;edgeStyle&quot;:&quot;entityRelationEdgeStyle&quot;,&quot;startArrow&quot;:&quot;none&quot;,&quot;endArrow&quot;:&quot;none&quot;,&quot;segment&quot;:10,&quot;curved&quot;:1,&quot;sourcePerimeterSpacing&quot;:0,&quot;targetPerimeterSpacing&quot;:0};treeFolding=1;treeMoving=1;" vertex="1" parent="1">
          <mxGeometry x="490" y="610" width="100" height="40" as="geometry" />
        </mxCell>
        <mxCell id="a7IkXdeOvBuVXZyOrHQX-118" style="edgeStyle=entityRelationEdgeStyle;rounded=0;orthogonalLoop=1;jettySize=auto;html=1;startArrow=none;endArrow=none;segment=10;curved=1;sourcePerimeterSpacing=0;targetPerimeterSpacing=0;exitX=1;exitY=0.5;exitDx=0;exitDy=0;" edge="1" parent="1" source="a7IkXdeOvBuVXZyOrHQX-55" target="a7IkXdeOvBuVXZyOrHQX-116">
          <mxGeometry relative="1" as="geometry" />
        </mxCell>
        <mxCell id="a7IkXdeOvBuVXZyOrHQX-120" style="edgeStyle=entityRelationEdgeStyle;rounded=0;orthogonalLoop=1;jettySize=auto;html=1;startArrow=none;endArrow=none;segment=10;curved=1;sourcePerimeterSpacing=0;targetPerimeterSpacing=0;exitX=1;exitY=0.5;exitDx=0;exitDy=0;entryX=0;entryY=0.5;entryDx=0;entryDy=0;" edge="1" parent="1" source="a7IkXdeOvBuVXZyOrHQX-55" target="a7IkXdeOvBuVXZyOrHQX-117">
          <mxGeometry relative="1" as="geometry" />
        </mxCell>
        <mxCell id="a7IkXdeOvBuVXZyOrHQX-55" value="画中画模式" style="ellipse;whiteSpace=wrap;html=1;align=center;newEdgeStyle={&quot;edgeStyle&quot;:&quot;entityRelationEdgeStyle&quot;,&quot;startArrow&quot;:&quot;none&quot;,&quot;endArrow&quot;:&quot;none&quot;,&quot;segment&quot;:10,&quot;curved&quot;:1,&quot;sourcePerimeterSpacing&quot;:0,&quot;targetPerimeterSpacing&quot;:0};treeFolding=1;treeMoving=1;" vertex="1" parent="1">
          <mxGeometry x="490" y="670" width="100" height="40" as="geometry" />
        </mxCell>
        <mxCell id="a7IkXdeOvBuVXZyOrHQX-63" value="" style="edgeStyle=entityRelationEdgeStyle;rounded=0;orthogonalLoop=1;jettySize=auto;html=1;startArrow=none;endArrow=none;segment=10;curved=1;sourcePerimeterSpacing=0;targetPerimeterSpacing=0;" edge="1" parent="1" source="a7IkXdeOvBuVXZyOrHQX-60" target="a7IkXdeOvBuVXZyOrHQX-62">
          <mxGeometry relative="1" as="geometry" />
        </mxCell>
        <mxCell id="a7IkXdeOvBuVXZyOrHQX-65" value="" style="edgeStyle=entityRelationEdgeStyle;rounded=0;orthogonalLoop=1;jettySize=auto;html=1;startArrow=none;endArrow=none;segment=10;curved=1;sourcePerimeterSpacing=0;targetPerimeterSpacing=0;" edge="1" parent="1" source="a7IkXdeOvBuVXZyOrHQX-60" target="a7IkXdeOvBuVXZyOrHQX-64">
          <mxGeometry relative="1" as="geometry" />
        </mxCell>
        <mxCell id="a7IkXdeOvBuVXZyOrHQX-66" value="" style="edgeStyle=entityRelationEdgeStyle;rounded=0;orthogonalLoop=1;jettySize=auto;html=1;startArrow=none;endArrow=none;segment=10;curved=1;sourcePerimeterSpacing=0;targetPerimeterSpacing=0;" edge="1" parent="1" source="a7IkXdeOvBuVXZyOrHQX-60" target="a7IkXdeOvBuVXZyOrHQX-64">
          <mxGeometry relative="1" as="geometry" />
        </mxCell>
        <mxCell id="a7IkXdeOvBuVXZyOrHQX-68" value="" style="edgeStyle=entityRelationEdgeStyle;rounded=0;orthogonalLoop=1;jettySize=auto;html=1;startArrow=none;endArrow=none;segment=10;curved=1;sourcePerimeterSpacing=0;targetPerimeterSpacing=0;" edge="1" parent="1" source="a7IkXdeOvBuVXZyOrHQX-60" target="a7IkXdeOvBuVXZyOrHQX-67">
          <mxGeometry relative="1" as="geometry" />
        </mxCell>
        <mxCell id="a7IkXdeOvBuVXZyOrHQX-74" value="" style="edgeStyle=entityRelationEdgeStyle;rounded=0;orthogonalLoop=1;jettySize=auto;html=1;startArrow=none;endArrow=none;segment=10;curved=1;sourcePerimeterSpacing=0;targetPerimeterSpacing=0;" edge="1" parent="1" source="a7IkXdeOvBuVXZyOrHQX-60" target="a7IkXdeOvBuVXZyOrHQX-73">
          <mxGeometry relative="1" as="geometry" />
        </mxCell>
        <mxCell id="a7IkXdeOvBuVXZyOrHQX-122" value="" style="edgeStyle=entityRelationEdgeStyle;rounded=0;orthogonalLoop=1;jettySize=auto;html=1;startArrow=none;endArrow=none;segment=10;curved=1;sourcePerimeterSpacing=0;targetPerimeterSpacing=0;" edge="1" parent="1" source="a7IkXdeOvBuVXZyOrHQX-60" target="a7IkXdeOvBuVXZyOrHQX-121">
          <mxGeometry relative="1" as="geometry" />
        </mxCell>
        <mxCell id="a7IkXdeOvBuVXZyOrHQX-60" value="状态" style="ellipse;whiteSpace=wrap;html=1;align=center;newEdgeStyle={&quot;edgeStyle&quot;:&quot;entityRelationEdgeStyle&quot;,&quot;startArrow&quot;:&quot;none&quot;,&quot;endArrow&quot;:&quot;none&quot;,&quot;segment&quot;:10,&quot;curved&quot;:1,&quot;sourcePerimeterSpacing&quot;:0,&quot;targetPerimeterSpacing&quot;:0};treeFolding=1;treeMoving=1;" vertex="1" parent="1">
          <mxGeometry x="240" y="800" width="100" height="40" as="geometry" />
        </mxCell>
        <mxCell id="a7IkXdeOvBuVXZyOrHQX-62" value="静音状态" style="ellipse;whiteSpace=wrap;html=1;align=center;newEdgeStyle={&quot;edgeStyle&quot;:&quot;entityRelationEdgeStyle&quot;,&quot;startArrow&quot;:&quot;none&quot;,&quot;endArrow&quot;:&quot;none&quot;,&quot;segment&quot;:10,&quot;curved&quot;:1,&quot;sourcePerimeterSpacing&quot;:0,&quot;targetPerimeterSpacing&quot;:0};treeFolding=1;treeMoving=1;" vertex="1" parent="1">
          <mxGeometry x="400" y="740" width="100" height="40" as="geometry" />
        </mxCell>
        <mxCell id="a7IkXdeOvBuVXZyOrHQX-64" value="音量大小" style="ellipse;whiteSpace=wrap;html=1;align=center;newEdgeStyle={&quot;edgeStyle&quot;:&quot;entityRelationEdgeStyle&quot;,&quot;startArrow&quot;:&quot;none&quot;,&quot;endArrow&quot;:&quot;none&quot;,&quot;segment&quot;:10,&quot;curved&quot;:1,&quot;sourcePerimeterSpacing&quot;:0,&quot;targetPerimeterSpacing&quot;:0};treeFolding=1;treeMoving=1;" vertex="1" parent="1">
          <mxGeometry x="400" y="830" width="100" height="40" as="geometry" />
        </mxCell>
        <mxCell id="a7IkXdeOvBuVXZyOrHQX-70" style="edgeStyle=entityRelationEdgeStyle;rounded=0;orthogonalLoop=1;jettySize=auto;html=1;startArrow=none;endArrow=none;segment=10;curved=1;sourcePerimeterSpacing=0;targetPerimeterSpacing=0;exitX=1;exitY=0.5;exitDx=0;exitDy=0;entryX=0;entryY=0.5;entryDx=0;entryDy=0;strokeColor=default;" edge="1" parent="1" source="a7IkXdeOvBuVXZyOrHQX-67" target="a7IkXdeOvBuVXZyOrHQX-69">
          <mxGeometry relative="1" as="geometry" />
        </mxCell>
        <mxCell id="a7IkXdeOvBuVXZyOrHQX-72" style="edgeStyle=entityRelationEdgeStyle;rounded=0;orthogonalLoop=1;jettySize=auto;html=1;startArrow=none;endArrow=none;segment=10;curved=1;sourcePerimeterSpacing=0;targetPerimeterSpacing=0;exitX=1;exitY=0.5;exitDx=0;exitDy=0;entryX=0;entryY=0.5;entryDx=0;entryDy=0;" edge="1" parent="1" source="a7IkXdeOvBuVXZyOrHQX-67" target="a7IkXdeOvBuVXZyOrHQX-71">
          <mxGeometry relative="1" as="geometry" />
        </mxCell>
        <mxCell id="a7IkXdeOvBuVXZyOrHQX-67" value="弱网提示" style="ellipse;whiteSpace=wrap;html=1;align=center;newEdgeStyle={&quot;edgeStyle&quot;:&quot;entityRelationEdgeStyle&quot;,&quot;startArrow&quot;:&quot;none&quot;,&quot;endArrow&quot;:&quot;none&quot;,&quot;segment&quot;:10,&quot;curved&quot;:1,&quot;sourcePerimeterSpacing&quot;:0,&quot;targetPerimeterSpacing&quot;:0};treeFolding=1;treeMoving=1;" vertex="1" parent="1">
          <mxGeometry x="395" y="930" width="110" height="40" as="geometry" />
        </mxCell>
        <mxCell id="a7IkXdeOvBuVXZyOrHQX-69" value="自身" style="text;html=1;strokeColor=none;fillColor=none;align=center;verticalAlign=middle;whiteSpace=wrap;rounded=0;" vertex="1" parent="1">
          <mxGeometry x="542" y="910" width="60" height="30" as="geometry" />
        </mxCell>
        <mxCell id="a7IkXdeOvBuVXZyOrHQX-71" value="对方" style="text;html=1;strokeColor=none;fillColor=none;align=center;verticalAlign=middle;whiteSpace=wrap;rounded=0;" vertex="1" parent="1">
          <mxGeometry x="542" y="950" width="60" height="30" as="geometry" />
        </mxCell>
        <mxCell id="a7IkXdeOvBuVXZyOrHQX-77" style="edgeStyle=entityRelationEdgeStyle;rounded=0;orthogonalLoop=1;jettySize=auto;html=1;startArrow=none;endArrow=none;segment=10;curved=1;sourcePerimeterSpacing=0;targetPerimeterSpacing=0;exitX=1;exitY=0.5;exitDx=0;exitDy=0;entryX=0;entryY=0.5;entryDx=0;entryDy=0;" edge="1" parent="1" source="a7IkXdeOvBuVXZyOrHQX-73" target="a7IkXdeOvBuVXZyOrHQX-75">
          <mxGeometry relative="1" as="geometry" />
        </mxCell>
        <mxCell id="a7IkXdeOvBuVXZyOrHQX-78" style="edgeStyle=entityRelationEdgeStyle;rounded=0;orthogonalLoop=1;jettySize=auto;html=1;startArrow=none;endArrow=none;segment=10;curved=1;sourcePerimeterSpacing=0;targetPerimeterSpacing=0;exitX=1;exitY=0.5;exitDx=0;exitDy=0;entryX=0;entryY=0.5;entryDx=0;entryDy=0;" edge="1" parent="1" source="a7IkXdeOvBuVXZyOrHQX-73" target="a7IkXdeOvBuVXZyOrHQX-76">
          <mxGeometry relative="1" as="geometry" />
        </mxCell>
        <mxCell id="a7IkXdeOvBuVXZyOrHQX-73" value="暂停状态" style="ellipse;whiteSpace=wrap;html=1;align=center;newEdgeStyle={&quot;edgeStyle&quot;:&quot;entityRelationEdgeStyle&quot;,&quot;startArrow&quot;:&quot;none&quot;,&quot;endArrow&quot;:&quot;none&quot;,&quot;segment&quot;:10,&quot;curved&quot;:1,&quot;sourcePerimeterSpacing&quot;:0,&quot;targetPerimeterSpacing&quot;:0};treeFolding=1;treeMoving=1;" vertex="1" parent="1">
          <mxGeometry x="400" y="1040" width="100" height="40" as="geometry" />
        </mxCell>
        <mxCell id="a7IkXdeOvBuVXZyOrHQX-75" value="推流端：失去焦点暂停预览" style="text;html=1;strokeColor=none;fillColor=none;align=center;verticalAlign=middle;whiteSpace=wrap;rounded=0;" vertex="1" parent="1">
          <mxGeometry x="542" y="1030" width="158" height="20" as="geometry" />
        </mxCell>
        <mxCell id="a7IkXdeOvBuVXZyOrHQX-76" value="拉流端：提示对方将窗口最小化" style="text;html=1;strokeColor=none;fillColor=none;align=center;verticalAlign=middle;whiteSpace=wrap;rounded=0;" vertex="1" parent="1">
          <mxGeometry x="542" y="1070" width="178" height="20" as="geometry" />
        </mxCell>
        <mxCell id="a7IkXdeOvBuVXZyOrHQX-82" value="" style="edgeStyle=entityRelationEdgeStyle;rounded=0;orthogonalLoop=1;jettySize=auto;html=1;startArrow=none;endArrow=none;segment=10;curved=1;sourcePerimeterSpacing=0;targetPerimeterSpacing=0;" edge="1" parent="1" source="a7IkXdeOvBuVXZyOrHQX-79" target="a7IkXdeOvBuVXZyOrHQX-81">
          <mxGeometry relative="1" as="geometry" />
        </mxCell>
        <mxCell id="a7IkXdeOvBuVXZyOrHQX-84" value="" style="edgeStyle=entityRelationEdgeStyle;rounded=0;orthogonalLoop=1;jettySize=auto;html=1;startArrow=none;endArrow=none;segment=10;curved=1;sourcePerimeterSpacing=0;targetPerimeterSpacing=0;" edge="1" parent="1" source="a7IkXdeOvBuVXZyOrHQX-79" target="a7IkXdeOvBuVXZyOrHQX-83">
          <mxGeometry relative="1" as="geometry" />
        </mxCell>
        <mxCell id="a7IkXdeOvBuVXZyOrHQX-86" value="" style="edgeStyle=entityRelationEdgeStyle;rounded=0;orthogonalLoop=1;jettySize=auto;html=1;startArrow=none;endArrow=none;segment=10;curved=1;sourcePerimeterSpacing=0;targetPerimeterSpacing=0;" edge="1" parent="1" source="a7IkXdeOvBuVXZyOrHQX-79" target="a7IkXdeOvBuVXZyOrHQX-85">
          <mxGeometry relative="1" as="geometry" />
        </mxCell>
        <mxCell id="a7IkXdeOvBuVXZyOrHQX-79" value="省流量" style="ellipse;whiteSpace=wrap;html=1;align=center;newEdgeStyle={&quot;edgeStyle&quot;:&quot;entityRelationEdgeStyle&quot;,&quot;startArrow&quot;:&quot;none&quot;,&quot;endArrow&quot;:&quot;none&quot;,&quot;segment&quot;:10,&quot;curved&quot;:1,&quot;sourcePerimeterSpacing&quot;:0,&quot;targetPerimeterSpacing&quot;:0};treeFolding=1;treeMoving=1;" vertex="1" parent="1">
          <mxGeometry x="230" y="1350" width="100" height="40" as="geometry" />
        </mxCell>
        <mxCell id="a7IkXdeOvBuVXZyOrHQX-81" value="无人观看不推流" style="ellipse;whiteSpace=wrap;html=1;align=center;newEdgeStyle={&quot;edgeStyle&quot;:&quot;entityRelationEdgeStyle&quot;,&quot;startArrow&quot;:&quot;none&quot;,&quot;endArrow&quot;:&quot;none&quot;,&quot;segment&quot;:10,&quot;curved&quot;:1,&quot;sourcePerimeterSpacing&quot;:0,&quot;targetPerimeterSpacing&quot;:0};treeFolding=1;treeMoving=1;" vertex="1" parent="1">
          <mxGeometry x="390" y="1260" width="100" height="40" as="geometry" />
        </mxCell>
        <mxCell id="a7IkXdeOvBuVXZyOrHQX-83" value="窗口隐藏不拉流" style="ellipse;whiteSpace=wrap;html=1;align=center;newEdgeStyle={&quot;edgeStyle&quot;:&quot;entityRelationEdgeStyle&quot;,&quot;startArrow&quot;:&quot;none&quot;,&quot;endArrow&quot;:&quot;none&quot;,&quot;segment&quot;:10,&quot;curved&quot;:1,&quot;sourcePerimeterSpacing&quot;:0,&quot;targetPerimeterSpacing&quot;:0};treeFolding=1;treeMoving=1;" vertex="1" parent="1">
          <mxGeometry x="390" y="1360" width="100" height="40" as="geometry" />
        </mxCell>
        <mxCell id="a7IkXdeOvBuVXZyOrHQX-85" value="大小流切换" style="ellipse;whiteSpace=wrap;html=1;align=center;newEdgeStyle={&quot;edgeStyle&quot;:&quot;entityRelationEdgeStyle&quot;,&quot;startArrow&quot;:&quot;none&quot;,&quot;endArrow&quot;:&quot;none&quot;,&quot;segment&quot;:10,&quot;curved&quot;:1,&quot;sourcePerimeterSpacing&quot;:0,&quot;targetPerimeterSpacing&quot;:0};treeFolding=1;treeMoving=1;" vertex="1" parent="1">
          <mxGeometry x="390" y="1460" width="100" height="40" as="geometry" />
        </mxCell>
        <mxCell id="a7IkXdeOvBuVXZyOrHQX-87" value="码率" style="ellipse;whiteSpace=wrap;html=1;align=center;newEdgeStyle={&quot;edgeStyle&quot;:&quot;entityRelationEdgeStyle&quot;,&quot;startArrow&quot;:&quot;none&quot;,&quot;endArrow&quot;:&quot;none&quot;,&quot;segment&quot;:10,&quot;curved&quot;:1,&quot;sourcePerimeterSpacing&quot;:0,&quot;targetPerimeterSpacing&quot;:0};treeFolding=1;treeMoving=1;" vertex="1" parent="1">
          <mxGeometry x="452" y="280" width="100" height="40" as="geometry" />
        </mxCell>
        <mxCell id="a7IkXdeOvBuVXZyOrHQX-91" value="推流端断开重连后自动重新拉流" style="text;html=1;strokeColor=none;fillColor=none;align=center;verticalAlign=middle;whiteSpace=wrap;rounded=0;" vertex="1" parent="1">
          <mxGeometry x="660" y="430" width="200" height="20" as="geometry" />
        </mxCell>
        <mxCell id="a7IkXdeOvBuVXZyOrHQX-92" value="屏幕分享覆盖" style="text;html=1;strokeColor=none;fillColor=none;align=center;verticalAlign=middle;whiteSpace=wrap;rounded=0;" vertex="1" parent="1">
          <mxGeometry x="660" y="520" width="100" height="20" as="geometry" />
        </mxCell>
        <mxCell id="a7IkXdeOvBuVXZyOrHQX-99" value="" style="edgeStyle=entityRelationEdgeStyle;rounded=0;orthogonalLoop=1;jettySize=auto;html=1;startArrow=none;endArrow=none;segment=10;curved=1;sourcePerimeterSpacing=0;targetPerimeterSpacing=0;" edge="1" parent="1" source="a7IkXdeOvBuVXZyOrHQX-96" target="a7IkXdeOvBuVXZyOrHQX-98">
          <mxGeometry relative="1" as="geometry" />
        </mxCell>
        <mxCell id="a7IkXdeOvBuVXZyOrHQX-107" value="" style="edgeStyle=entityRelationEdgeStyle;rounded=0;orthogonalLoop=1;jettySize=auto;html=1;startArrow=none;endArrow=none;segment=10;curved=1;sourcePerimeterSpacing=0;targetPerimeterSpacing=0;" edge="1" parent="1" source="a7IkXdeOvBuVXZyOrHQX-96" target="a7IkXdeOvBuVXZyOrHQX-106">
          <mxGeometry relative="1" as="geometry" />
        </mxCell>
        <mxCell id="a7IkXdeOvBuVXZyOrHQX-111" value="" style="edgeStyle=entityRelationEdgeStyle;rounded=0;orthogonalLoop=1;jettySize=auto;html=1;startArrow=none;endArrow=none;segment=10;curved=1;sourcePerimeterSpacing=0;targetPerimeterSpacing=0;" edge="1" parent="1" source="a7IkXdeOvBuVXZyOrHQX-96" target="a7IkXdeOvBuVXZyOrHQX-110">
          <mxGeometry relative="1" as="geometry" />
        </mxCell>
        <mxCell id="a7IkXdeOvBuVXZyOrHQX-96" value="入口" style="ellipse;whiteSpace=wrap;html=1;align=center;newEdgeStyle={&quot;edgeStyle&quot;:&quot;entityRelationEdgeStyle&quot;,&quot;startArrow&quot;:&quot;none&quot;,&quot;endArrow&quot;:&quot;none&quot;,&quot;segment&quot;:10,&quot;curved&quot;:1,&quot;sourcePerimeterSpacing&quot;:0,&quot;targetPerimeterSpacing&quot;:0};treeFolding=1;treeMoving=1;" vertex="1" parent="1">
          <mxGeometry x="220" y="1640" width="100" height="40" as="geometry" />
        </mxCell>
        <mxCell id="a7IkXdeOvBuVXZyOrHQX-101" value="" style="edgeStyle=entityRelationEdgeStyle;rounded=0;orthogonalLoop=1;jettySize=auto;html=1;startArrow=none;endArrow=none;segment=10;curved=1;sourcePerimeterSpacing=0;targetPerimeterSpacing=0;" edge="1" parent="1" source="a7IkXdeOvBuVXZyOrHQX-98" target="a7IkXdeOvBuVXZyOrHQX-100">
          <mxGeometry relative="1" as="geometry" />
        </mxCell>
        <mxCell id="a7IkXdeOvBuVXZyOrHQX-103" value="" style="edgeStyle=entityRelationEdgeStyle;rounded=0;orthogonalLoop=1;jettySize=auto;html=1;startArrow=none;endArrow=none;segment=10;curved=1;sourcePerimeterSpacing=0;targetPerimeterSpacing=0;" edge="1" parent="1" source="a7IkXdeOvBuVXZyOrHQX-98" target="a7IkXdeOvBuVXZyOrHQX-102">
          <mxGeometry relative="1" as="geometry" />
        </mxCell>
        <mxCell id="a7IkXdeOvBuVXZyOrHQX-105" value="" style="edgeStyle=entityRelationEdgeStyle;rounded=0;orthogonalLoop=1;jettySize=auto;html=1;startArrow=none;endArrow=none;segment=10;curved=1;sourcePerimeterSpacing=0;targetPerimeterSpacing=0;" edge="1" parent="1" source="a7IkXdeOvBuVXZyOrHQX-98" target="a7IkXdeOvBuVXZyOrHQX-104">
          <mxGeometry relative="1" as="geometry" />
        </mxCell>
        <mxCell id="a7IkXdeOvBuVXZyOrHQX-98" value="邀请链接" style="ellipse;whiteSpace=wrap;html=1;align=center;newEdgeStyle={&quot;edgeStyle&quot;:&quot;entityRelationEdgeStyle&quot;,&quot;startArrow&quot;:&quot;none&quot;,&quot;endArrow&quot;:&quot;none&quot;,&quot;segment&quot;:10,&quot;curved&quot;:1,&quot;sourcePerimeterSpacing&quot;:0,&quot;targetPerimeterSpacing&quot;:0};treeFolding=1;treeMoving=1;" vertex="1" parent="1">
          <mxGeometry x="380" y="1650" width="100" height="40" as="geometry" />
        </mxCell>
        <mxCell id="a7IkXdeOvBuVXZyOrHQX-100" value="浏览器打开邀请链接" style="ellipse;whiteSpace=wrap;html=1;align=center;newEdgeStyle={&quot;edgeStyle&quot;:&quot;entityRelationEdgeStyle&quot;,&quot;startArrow&quot;:&quot;none&quot;,&quot;endArrow&quot;:&quot;none&quot;,&quot;segment&quot;:10,&quot;curved&quot;:1,&quot;sourcePerimeterSpacing&quot;:0,&quot;targetPerimeterSpacing&quot;:0};treeFolding=1;treeMoving=1;" vertex="1" parent="1">
          <mxGeometry x="530" y="1520" width="140" height="50" as="geometry" />
        </mxCell>
        <mxCell id="a7IkXdeOvBuVXZyOrHQX-102" value="PC端邀请弹框" style="ellipse;whiteSpace=wrap;html=1;align=center;newEdgeStyle={&quot;edgeStyle&quot;:&quot;entityRelationEdgeStyle&quot;,&quot;startArrow&quot;:&quot;none&quot;,&quot;endArrow&quot;:&quot;none&quot;,&quot;segment&quot;:10,&quot;curved&quot;:1,&quot;sourcePerimeterSpacing&quot;:0,&quot;targetPerimeterSpacing&quot;:0};treeFolding=1;treeMoving=1;" vertex="1" parent="1">
          <mxGeometry x="550" y="1610" width="100" height="40" as="geometry" />
        </mxCell>
        <mxCell id="a7IkXdeOvBuVXZyOrHQX-104" value="邀请卡片" style="ellipse;whiteSpace=wrap;html=1;align=center;newEdgeStyle={&quot;edgeStyle&quot;:&quot;entityRelationEdgeStyle&quot;,&quot;startArrow&quot;:&quot;none&quot;,&quot;endArrow&quot;:&quot;none&quot;,&quot;segment&quot;:10,&quot;curved&quot;:1,&quot;sourcePerimeterSpacing&quot;:0,&quot;targetPerimeterSpacing&quot;:0};treeFolding=1;treeMoving=1;" vertex="1" parent="1">
          <mxGeometry x="550" y="1720" width="100" height="40" as="geometry" />
        </mxCell>
        <mxCell id="a7IkXdeOvBuVXZyOrHQX-109" value="" style="edgeStyle=entityRelationEdgeStyle;rounded=0;orthogonalLoop=1;jettySize=auto;html=1;startArrow=none;endArrow=none;segment=10;curved=1;sourcePerimeterSpacing=0;targetPerimeterSpacing=0;" edge="1" parent="1" source="a7IkXdeOvBuVXZyOrHQX-106" target="a7IkXdeOvBuVXZyOrHQX-108">
          <mxGeometry relative="1" as="geometry" />
        </mxCell>
        <mxCell id="a7IkXdeOvBuVXZyOrHQX-112" value="" style="edgeStyle=entityRelationEdgeStyle;rounded=0;orthogonalLoop=1;jettySize=auto;html=1;startArrow=none;endArrow=none;segment=10;curved=1;sourcePerimeterSpacing=0;targetPerimeterSpacing=0;" edge="1" parent="1" source="a7IkXdeOvBuVXZyOrHQX-106" target="a7IkXdeOvBuVXZyOrHQX-108">
          <mxGeometry relative="1" as="geometry" />
        </mxCell>
        <mxCell id="a7IkXdeOvBuVXZyOrHQX-106" value="频道用户列表" style="ellipse;whiteSpace=wrap;html=1;align=center;newEdgeStyle={&quot;edgeStyle&quot;:&quot;entityRelationEdgeStyle&quot;,&quot;startArrow&quot;:&quot;none&quot;,&quot;endArrow&quot;:&quot;none&quot;,&quot;segment&quot;:10,&quot;curved&quot;:1,&quot;sourcePerimeterSpacing&quot;:0,&quot;targetPerimeterSpacing&quot;:0};treeFolding=1;treeMoving=1;" vertex="1" parent="1">
          <mxGeometry x="380" y="1850" width="100" height="40" as="geometry" />
        </mxCell>
        <mxCell id="a7IkXdeOvBuVXZyOrHQX-108" value="屏幕分享ICON" style="ellipse;whiteSpace=wrap;html=1;align=center;newEdgeStyle={&quot;edgeStyle&quot;:&quot;entityRelationEdgeStyle&quot;,&quot;startArrow&quot;:&quot;none&quot;,&quot;endArrow&quot;:&quot;none&quot;,&quot;segment&quot;:10,&quot;curved&quot;:1,&quot;sourcePerimeterSpacing&quot;:0,&quot;targetPerimeterSpacing&quot;:0};treeFolding=1;treeMoving=1;" vertex="1" parent="1">
          <mxGeometry x="560" y="1840" width="100" height="40" as="geometry" />
        </mxCell>
        <mxCell id="a7IkXdeOvBuVXZyOrHQX-130" value="" style="edgeStyle=entityRelationEdgeStyle;rounded=0;orthogonalLoop=1;jettySize=auto;html=1;startArrow=none;endArrow=none;segment=10;curved=1;sourcePerimeterSpacing=0;targetPerimeterSpacing=0;" edge="1" parent="1" source="a7IkXdeOvBuVXZyOrHQX-110" target="a7IkXdeOvBuVXZyOrHQX-129">
          <mxGeometry relative="1" as="geometry" />
        </mxCell>
        <mxCell id="a7IkXdeOvBuVXZyOrHQX-132" value="" style="edgeStyle=entityRelationEdgeStyle;rounded=0;orthogonalLoop=1;jettySize=auto;html=1;startArrow=none;endArrow=none;segment=10;curved=1;sourcePerimeterSpacing=0;targetPerimeterSpacing=0;" edge="1" parent="1" source="a7IkXdeOvBuVXZyOrHQX-110" target="a7IkXdeOvBuVXZyOrHQX-131">
          <mxGeometry relative="1" as="geometry" />
        </mxCell>
        <mxCell id="a7IkXdeOvBuVXZyOrHQX-110" value="语音中控台" style="ellipse;whiteSpace=wrap;html=1;align=center;newEdgeStyle={&quot;edgeStyle&quot;:&quot;entityRelationEdgeStyle&quot;,&quot;startArrow&quot;:&quot;none&quot;,&quot;endArrow&quot;:&quot;none&quot;,&quot;segment&quot;:10,&quot;curved&quot;:1,&quot;sourcePerimeterSpacing&quot;:0,&quot;targetPerimeterSpacing&quot;:0};treeFolding=1;treeMoving=1;" vertex="1" parent="1">
          <mxGeometry x="380" y="2030" width="100" height="40" as="geometry" />
        </mxCell>
        <mxCell id="a7IkXdeOvBuVXZyOrHQX-116" value="web用浏览器画中画API" style="text;html=1;strokeColor=none;fillColor=none;align=center;verticalAlign=middle;whiteSpace=wrap;rounded=0;" vertex="1" parent="1">
          <mxGeometry x="630" y="650" width="140" height="30" as="geometry" />
        </mxCell>
        <mxCell id="a7IkXdeOvBuVXZyOrHQX-117" value="PC用新窗口" style="text;html=1;strokeColor=none;fillColor=none;align=center;verticalAlign=middle;whiteSpace=wrap;rounded=0;" vertex="1" parent="1">
          <mxGeometry x="630" y="700" width="100" height="20" as="geometry" />
        </mxCell>
        <mxCell id="a7IkXdeOvBuVXZyOrHQX-124" style="edgeStyle=entityRelationEdgeStyle;rounded=0;orthogonalLoop=1;jettySize=auto;html=1;startArrow=none;endArrow=none;segment=10;curved=1;sourcePerimeterSpacing=0;targetPerimeterSpacing=0;exitX=1;exitY=0.5;exitDx=0;exitDy=0;entryX=0;entryY=0.5;entryDx=0;entryDy=0;" edge="1" parent="1" source="a7IkXdeOvBuVXZyOrHQX-121" target="a7IkXdeOvBuVXZyOrHQX-123">
          <mxGeometry relative="1" as="geometry" />
        </mxCell>
        <mxCell id="a7IkXdeOvBuVXZyOrHQX-126" style="edgeStyle=entityRelationEdgeStyle;rounded=0;orthogonalLoop=1;jettySize=auto;html=1;startArrow=none;endArrow=none;segment=10;curved=1;sourcePerimeterSpacing=0;targetPerimeterSpacing=0;exitX=1;exitY=0.5;exitDx=0;exitDy=0;entryX=0;entryY=0.5;entryDx=0;entryDy=0;" edge="1" parent="1" source="a7IkXdeOvBuVXZyOrHQX-121" target="a7IkXdeOvBuVXZyOrHQX-125">
          <mxGeometry relative="1" as="geometry" />
        </mxCell>
        <mxCell id="a7IkXdeOvBuVXZyOrHQX-128" style="edgeStyle=entityRelationEdgeStyle;rounded=0;orthogonalLoop=1;jettySize=auto;html=1;startArrow=none;endArrow=none;segment=10;curved=1;sourcePerimeterSpacing=0;targetPerimeterSpacing=0;exitX=1;exitY=0.5;exitDx=0;exitDy=0;entryX=0;entryY=0.5;entryDx=0;entryDy=0;" edge="1" parent="1" source="a7IkXdeOvBuVXZyOrHQX-121" target="a7IkXdeOvBuVXZyOrHQX-127">
          <mxGeometry relative="1" as="geometry" />
        </mxCell>
        <mxCell id="a7IkXdeOvBuVXZyOrHQX-121" value="连接状态" style="ellipse;whiteSpace=wrap;html=1;align=center;newEdgeStyle={&quot;edgeStyle&quot;:&quot;entityRelationEdgeStyle&quot;,&quot;startArrow&quot;:&quot;none&quot;,&quot;endArrow&quot;:&quot;none&quot;,&quot;segment&quot;:10,&quot;curved&quot;:1,&quot;sourcePerimeterSpacing&quot;:0,&quot;targetPerimeterSpacing&quot;:0};treeFolding=1;treeMoving=1;" vertex="1" parent="1">
          <mxGeometry x="400" y="1140" width="100" height="40" as="geometry" />
        </mxCell>
        <mxCell id="a7IkXdeOvBuVXZyOrHQX-123" value="未连接" style="text;html=1;strokeColor=none;fillColor=none;align=center;verticalAlign=middle;whiteSpace=wrap;rounded=0;" vertex="1" parent="1">
          <mxGeometry x="560" y="1120" width="60" height="30" as="geometry" />
        </mxCell>
        <mxCell id="a7IkXdeOvBuVXZyOrHQX-125" value="连接中" style="text;html=1;strokeColor=none;fillColor=none;align=center;verticalAlign=middle;whiteSpace=wrap;rounded=0;" vertex="1" parent="1">
          <mxGeometry x="560" y="1160" width="60" height="30" as="geometry" />
        </mxCell>
        <mxCell id="a7IkXdeOvBuVXZyOrHQX-127" value="已连接" style="text;html=1;strokeColor=none;fillColor=none;align=center;verticalAlign=middle;whiteSpace=wrap;rounded=0;" vertex="1" parent="1">
          <mxGeometry x="560" y="1200" width="60" height="30" as="geometry" />
        </mxCell>
        <mxCell id="a7IkXdeOvBuVXZyOrHQX-129" value="屏幕分享按钮" style="ellipse;whiteSpace=wrap;html=1;align=center;newEdgeStyle={&quot;edgeStyle&quot;:&quot;entityRelationEdgeStyle&quot;,&quot;startArrow&quot;:&quot;none&quot;,&quot;endArrow&quot;:&quot;none&quot;,&quot;segment&quot;:10,&quot;curved&quot;:1,&quot;sourcePerimeterSpacing&quot;:0,&quot;targetPerimeterSpacing&quot;:0};treeFolding=1;treeMoving=1;" vertex="1" parent="1">
          <mxGeometry x="552" y="1960" width="100" height="40" as="geometry" />
        </mxCell>
        <mxCell id="a7IkXdeOvBuVXZyOrHQX-131" value="快速分享按钮" style="ellipse;whiteSpace=wrap;html=1;align=center;newEdgeStyle={&quot;edgeStyle&quot;:&quot;entityRelationEdgeStyle&quot;,&quot;startArrow&quot;:&quot;none&quot;,&quot;endArrow&quot;:&quot;none&quot;,&quot;segment&quot;:10,&quot;curved&quot;:1,&quot;sourcePerimeterSpacing&quot;:0,&quot;targetPerimeterSpacing&quot;:0};treeFolding=1;treeMoving=1;" vertex="1" parent="1">
          <mxGeometry x="550" y="2050" width="100" height="40" as="geometry" />
        </mxCell>
        <mxCell id="a7IkXdeOvBuVXZyOrHQX-136" value="" style="edgeStyle=entityRelationEdgeStyle;rounded=0;orthogonalLoop=1;jettySize=auto;html=1;startArrow=none;endArrow=none;segment=10;curved=1;sourcePerimeterSpacing=0;targetPerimeterSpacing=0;" edge="1" parent="1" source="a7IkXdeOvBuVXZyOrHQX-133" target="a7IkXdeOvBuVXZyOrHQX-135">
          <mxGeometry relative="1" as="geometry" />
        </mxCell>
        <mxCell id="a7IkXdeOvBuVXZyOrHQX-138" value="" style="edgeStyle=entityRelationEdgeStyle;rounded=0;orthogonalLoop=1;jettySize=auto;html=1;startArrow=none;endArrow=none;segment=10;curved=1;sourcePerimeterSpacing=0;targetPerimeterSpacing=0;" edge="1" parent="1" source="a7IkXdeOvBuVXZyOrHQX-133" target="a7IkXdeOvBuVXZyOrHQX-137">
          <mxGeometry relative="1" as="geometry" />
        </mxCell>
        <mxCell id="a7IkXdeOvBuVXZyOrHQX-133" value="SDK" style="ellipse;whiteSpace=wrap;html=1;align=center;newEdgeStyle={&quot;edgeStyle&quot;:&quot;entityRelationEdgeStyle&quot;,&quot;startArrow&quot;:&quot;none&quot;,&quot;endArrow&quot;:&quot;none&quot;,&quot;segment&quot;:10,&quot;curved&quot;:1,&quot;sourcePerimeterSpacing&quot;:0,&quot;targetPerimeterSpacing&quot;:0};treeFolding=1;treeMoving=1;" vertex="1" parent="1">
          <mxGeometry x="240" y="2150" width="100" height="40" as="geometry" />
        </mxCell>
        <mxCell id="a7IkXdeOvBuVXZyOrHQX-135" value="自建" style="ellipse;whiteSpace=wrap;html=1;align=center;newEdgeStyle={&quot;edgeStyle&quot;:&quot;entityRelationEdgeStyle&quot;,&quot;startArrow&quot;:&quot;none&quot;,&quot;endArrow&quot;:&quot;none&quot;,&quot;segment&quot;:10,&quot;curved&quot;:1,&quot;sourcePerimeterSpacing&quot;:0,&quot;targetPerimeterSpacing&quot;:0};treeFolding=1;treeMoving=1;" vertex="1" parent="1">
          <mxGeometry x="370" y="2110" width="100" height="40" as="geometry" />
        </mxCell>
        <mxCell id="a7IkXdeOvBuVXZyOrHQX-137" value="声网" style="ellipse;whiteSpace=wrap;html=1;align=center;newEdgeStyle={&quot;edgeStyle&quot;:&quot;entityRelationEdgeStyle&quot;,&quot;startArrow&quot;:&quot;none&quot;,&quot;endArrow&quot;:&quot;none&quot;,&quot;segment&quot;:10,&quot;curved&quot;:1,&quot;sourcePerimeterSpacing&quot;:0,&quot;targetPerimeterSpacing&quot;:0};treeFolding=1;treeMoving=1;" vertex="1" parent="1">
          <mxGeometry x="370" y="2200" width="100" height="40" as="geometry" />
        </mxCell>
      </root>
    </mxGraphModel>
  </diagram>
</mxfile>
